<svg viewBox="0 0 73 78" fill="none" xmlns="http://www.w3.org/2000/svg">
<path d="M32.0069 20.7471C32.0069 20.7471 25.4382 7.05369 7.41539 1.27937L4.4595 1.0319C4.4595 1.0319 1.91413 2.88793 0.805664 18.9323C1.17515 25.0778 3.35104 31.0584 7.12803 35.9665C5.56797 38.7712 4.70582 41.9883 4.78793 45.1642C5.28058 49.9486 11.1103 76.6342 37.6313 77.7479C37.6313 77.7479 59.0617 79.6039 69.2842 52.7533C69.2842 52.7533 71.6243 42.6895 66.7388 35.7191C69.6947 30.6047 71.6243 24.8303 72.4864 18.9323C73.4717 10.2296 71.378 3.96031 69.3252 0.28949C64.9735 1.40311 60.7038 3.25914 57.05 5.81634C51.3024 9.9821 48.1823 10.2296 42.2294 21.0358C42.2294 20.7471 36.2765 18.9323 32.0069 20.7471Z" fill="#160C09"/>
<path d="M4.87029 3.71284C4.87029 3.71284 4.00815 9.73463 3.76182 14.5191C3.26917 19.551 4.00813 25.5728 9.26308 33.9868C9.63257 34.6054 9.75575 35.3479 9.50943 36.049C9.01677 37.1626 7.66198 45.9891 9.01677 50.7735C11.1105 58.1152 21.292 75.5206 38.2064 74.407C55.1207 73.2934 61.4431 61.0436 61.4431 61.0436C61.4431 61.0436 67.1907 51.8459 66.1644 47.0615C65.4664 43.6381 64.9327 40.1735 64.8506 36.7502C64.8506 34.6879 67.8065 26.8101 67.8065 26.8101C67.8065 26.8101 70.4751 17.8599 70.1056 12.3331C69.7361 6.80622 68.7918 2.02179 68.7918 2.02179C68.7918 2.02179 56.0239 8.41479 53.6017 11.0132C51.1795 13.5704 46.2941 17.6537 44.2003 23.3868C39.6843 22.7681 35.2094 22.5206 30.8166 22.8918C30.8166 22.8918 24.8637 13.9416 19.4035 10.5183C13.738 7.4249 11.6853 5.3214 4.87029 3.71284Z" fill="#FD4100"/>
<path d="M6.67676 7.17749C6.67676 7.17749 7.5389 19.7985 7.37469 22.1495C7.37469 22.1495 7.86733 25.3253 11.7264 31.3471C12.8349 32.5432 14.0665 33.5744 15.3803 34.523C16.0782 34.7705 12.2191 28.5012 12.2191 28.5012V26.274C13.2044 27.965 14.395 29.4499 15.8729 30.6872C17.9667 32.0483 16.1193 29.3261 16.1193 29.3261C16.1193 29.3261 14.5592 22.232 14.8055 21.4896C15.0929 20.7471 20.7995 26.5215 20.7995 26.5215C21.2921 27.3876 22.2774 27.8825 23.3448 27.6351L22.0311 20.7471C22.0311 20.7471 27.984 25.2841 28.8461 24.9129C29.7082 24.5417 20.6763 14.3541 20.6763 14.3541C20.6763 14.3541 14.1076 7.38372 6.67676 7.17749Z" fill="#FAEDD7"/>
<path d="M46.499 25.284C46.499 25.284 52.2466 10.8069 67.0672 5.81628C67.0672 5.81628 67.9294 18.1898 67.3135 20.5408C66.8209 22.8505 61.5659 32.6669 61.5659 32.6669C61.5659 32.6669 62.6744 27.14 62.2639 25.5727C62.2639 25.5727 59.7185 31.0996 58.3637 31.9657C58.3637 31.9657 60.2112 22.5206 59.6775 20.4583C59.6775 20.4583 53.4783 25.7377 52.8624 26.6863C52.1645 27.5525 53.7246 20.912 53.1088 20.0459C52.5751 19.1797 46.499 25.284 46.499 25.284Z" fill="#FAEDD7"/>
<path d="M24.4527 71.2311C24.4527 71.2311 19.9367 62.5284 17.6377 58.3626C15.3387 54.4443 12.1364 47.1027 14.6818 44.628C16.4061 43.1844 18.582 42.4008 20.881 42.772C20.881 42.772 28.435 44.8342 29.2561 43.2669C29.7487 42.0708 29.8719 40.7097 29.5024 39.3486C29.5024 39.3486 30.6109 34.5642 37.0564 34.3167C43.3787 34.0692 44.364 38.7299 44.364 38.7299C44.364 38.7299 43.8714 43.7618 46.4578 43.7618C48.3874 43.6381 50.2348 43.0194 51.9591 42.1533C51.9591 42.1533 59.7184 40.5447 61.1142 45.3292C61.9764 48.2988 61.73 51.3509 60.4163 54.0319C60.4163 54.0319 54.915 62.7346 53.8476 65.0856L52.7391 67.3953L50.8917 70.8186C51.3843 70.9836 37.0153 78.9439 24.4527 71.2311Z" fill="#FAEDD7"/>
<path d="M36.2764 45.7416V43.1844C36.2764 43.1844 33.3205 42.3183 32.3763 40.8747C31.6784 39.5136 31.6783 37.4513 33.2384 36.7089C34.7985 35.9665 40.9977 36.7089 40.9977 36.7089C40.9977 36.7089 44.1589 38.3175 42.8451 40.1323C41.6135 41.4934 40.1766 42.442 38.4934 43.1019L38.247 46.0716C39.3555 45.8241 40.5871 45.9478 41.6546 46.3191C42.9683 47.0615 45.0621 48.3813 45.0621 48.3813C45.0621 48.3813 49.4138 49.4949 50.276 48.1338C50.276 48.1338 50.9739 44.958 52.6161 45.8241C53.314 46.1953 53.7245 47.0202 53.4782 47.8864C53.4782 48.0101 53.3551 48.0101 53.3551 48.1338C52.8624 49 52.0413 49.7424 51.0149 49.9899C48.5927 50.856 45.8832 50.6086 43.7073 49.2475C41.0387 47.3914 41.1619 47.3914 37.9597 47.3914C34.7985 47.3914 34.3058 48.1338 31.6373 49.4537C28.9687 50.7735 24.5759 50.5673 23.5906 49.9486C22.7285 49.0825 21.0453 47.8864 22.2769 46.5253C23.3854 45.1642 24.576 48.5875 24.576 48.5875C24.576 48.5875 25.8897 50.4436 29.2972 48.5875C32.8689 46.8552 33.9774 45.9891 36.2764 45.7416Z" fill="#160C09"/>
<path d="M28.1067 35.4303C28.1067 35.8015 27.9836 36.049 27.8604 36.2965C27.8604 36.2965 27.8604 37.6576 30.2005 35.1829C29.5025 33.7393 28.2709 32.4607 26.793 31.7595C26.793 31.7595 25.6845 32.007 26.5466 32.8731L27.6551 33.9868C26.4235 33.6156 25.1097 33.4918 23.7549 33.4918C22.4412 33.7393 19.8548 34.2342 19.0337 35.5541C19.0337 35.5541 19.28 36.2965 19.7316 36.049C20.9632 35.0591 22.5233 34.4405 24.0834 34.4405C25.4382 34.358 26.9161 34.6054 28.1067 35.4303Z" fill="#160C09"/>
<path d="M46.9919 36.2965C46.9919 36.2965 44.6518 36.049 44.4465 34.4405C44.2002 32.8319 47.854 31.4708 47.854 31.4708C47.854 31.4708 48.5519 32.2132 47.854 32.337C47.1561 32.5844 46.5402 32.8319 46.2939 33.4506C46.2939 33.4506 51.0152 32.7082 53.3552 33.4506C54.5869 33.8218 55.5311 34.4405 56.5164 35.3066C56.5164 35.3066 56.2701 36.1728 55.408 35.5541C54.1763 34.4405 52.6163 33.9455 51.0562 34.193C49.4962 34.193 48.0182 34.3167 46.5403 34.4405C46.9919 34.9354 47.115 35.6778 46.9919 36.2965Z" fill="#160C09"/>
</svg>
